<?xml version="1.0" encoding="UTF-8"?>
<svg width="512" height="512" viewBox="0 0 512 512"
     fill="none" xmlns="http://www.w3.org/2000/svg">

    <!-- Background -->
    <rect width="512" height="512" rx="40" fill="#8E6688"/>

    <!-- Gear -->
    <g>
        <circle cx="256" cy="256" r="128" fill="#B7BFEA"/>
        <circle cx="256" cy="256" r="88" fill="#F5F5F5"/>

        <!-- Teeth -->
        <rect x="236" y="66" width="40" height="72" rx="10" fill="#B7BFEA"/>
        <rect x="236" y="374" width="40" height="72" rx="10" fill="#B7BFEA"/>

        <rect x="374" y="236" width="72" height="40" rx="10" fill="#B7BFEA"/>
        <rect x="66" y="236" width="72" height="40" rx="10" fill="#B7BFEA"/>

        <rect x="352" y="108" width="40" height="72" rx="10"
              transform="rotate(45 352 108)" fill="#B7BFEA"/>

        <rect x="108" y="352" width="40" height="72" rx="10"
              transform="rotate(45 108 352)" fill="#B7BFEA"/>

        <rect x="332" y="404" width="40" height="72" rx="10"
              transform="rotate(-45 332 404)" fill="#B7BFEA"/>

        <rect x="88" y="160" width="40" height="72" rx="10"
              transform="rotate(-45 88 160)" fill="#B7BFEA"/>
    </g>

    <!-- Shop -->
    <g>
        <!-- Building -->
        <rect x="185" y="250" width="142" height="96" rx="12" fill="#F6C7B8"/>
        <rect x="300" y="250" width="27" height="96" rx="10" fill="#F2A08E"/>

        <!-- Door -->
        <rect x="214" y="288" width="38" height="58" fill="#E58371"/>

        <!-- Window -->
        <rect x="276" y="286" width="34" height="12" fill="#E58371"/>

        <!-- Roof -->
        <path d="M165 250L185 210H327L347 250H165Z" fill="#F9D835"/>

        <!-- Awning -->
        <path d="M165 250H205V272C205 286 193 292 185 292C177 292 165 286 165 272V250Z"
              fill="#FF335F"/>

        <path d="M205 250H256V272C256 286 244 292 230 292C216 292 205 286 205 272V250Z"
              fill="#F9B000"/>

        <path d="M256 250H307V272C307 286 295 292 281 292C267 292 256 286 256 272V250Z"
              fill="#FF335F"/>

        <path d="M307 250H347V272C347 286 335 292 327 292C319 292 307 286 307 272V250Z"
              fill="#F9B000"/>
    </g>

</svg>